<?xml version="1.0" encoding="UTF-8"?>
<svg width="1000" height="1000" viewBox="0 0 1000 1000" version="1.1" xmlns="http://www.w3.org/2000/svg" xmlns:xlink="http://www.w3.org/1999/xlink">
 <path d="M324,39 l-52,-9 l0,-30 l187,0 l0,30 l-52,9 c-2,86,-2,172,-2,248 l0,70 c20,-47,50,-64,79,-64 c70,0,124,62,124,231 c0,173,-45,230,-116,230 c-32,0,-63,-18,-87,-68 l0,61 l-189,0 l0,-30 l61,-9 l-195,-668 l-47,-10 l0,-30 l147,0 l0,30 l-58,12 l69,237 l133,0 c0,-74,0,-157,-2,-240 Z M463,346 c-21,0,-40,13,-58,44 l0,261 c19,37,40,50,63,50 c38,0,63,-37,63,-177 c0,-142,-30,-178,-68,-178 Z M796,293 c88,0,142,82,142,232 c0,150,-58,229,-142,229 c-84,0,-142,-79,-142,-229 c0,-150,54,-232,142,-232 Z M796,326 c-45,0,-68,62,-68,198 c0,134,23,199,68,199 c46,0,68,-65,68,-199 c0,-136,-22,-198,-68,-198 Z M326,312 l-123,0 l114,394 l9,0 Z M326,312" fill="rgb(0,0,0)" transform="matrix(0.936,0.0,0.0,-0.936,32.0,855.68)"/>
</svg>