<?xml version="1.0" encoding="UTF-8"?>
<svg width="1000" height="1000" viewBox="0 0 1000 1000" version="1.1" xmlns="http://www.w3.org/2000/svg" xmlns:xlink="http://www.w3.org/1999/xlink">
 <path d="M631,297 c33,0,61,16,78,38 l-15,20 c-10,-9,-20,-13,-34,-13 c-21,0,-32,18,-32,48 l0,309 l73,-2 l0,39 l-72,0 l4,87 l-45,0 l-30,-87 l-34,-5 l0,-32 l33,0 l0,-225 c0,-33,-1,-55,-1,-82 c0,-55,23,-95,75,-95 Z M251,39 l-52,-9 l0,-30 l183,0 l0,30 l-52,9 c-2,86,-2,172,-2,248 l0,60 c16,-40,41,-54,65,-54 c65,0,115,62,115,231 c0,173,-42,230,-107,230 c-27,0,-53,-15,-73,-58 l0,51 l-185,0 l0,-30 l62,-9 l-144,-668 l-46,-10 l0,-30 l147,0 l0,30 l-59,12 l51,237 l99,0 c0,-74,0,-157,-2,-240 Z M373,346 c-16,0,-31,10,-45,32 l0,285 c15,28,32,38,50,38 c33,0,56,-37,56,-177 c0,-142,-28,-178,-61,-178 Z M836,293 c88,0,142,82,142,232 c0,150,-58,229,-142,229 c-84,0,-142,-79,-142,-229 c0,-150,54,-232,142,-232 Z M836,326 c-45,0,-68,62,-68,198 c0,134,23,199,68,199 c46,0,68,-65,68,-199 c0,-136,-22,-198,-68,-198 Z M253,312 l-92,0 l84,394 l8,0 Z M253,312" fill="rgb(0,0,0)" transform="matrix(0.936,0.0,0.0,-0.936,32.0,855.68)"/>
</svg>