<?xml version="1.0" encoding="UTF-8"?>
<svg width="1000" height="1000" viewBox="0 0 1000 1000" version="1.1" xmlns="http://www.w3.org/2000/svg" xmlns:xlink="http://www.w3.org/1999/xlink">
 <path d="M254,-16 c75,0,137,75,137,281 c0,210,-54,280,-129,280 c-37,0,-72,-20,-98,-70 l0,172 l4,158 l-18,10 l-122,-25 l0,-27 l57,-4 l0,-612 l-3,-148 l21,-5 l50,68 c28,-57,62,-78,101,-78 Z M229,37 c-26,0,-46,15,-65,51 l0,348 c20,42,42,56,69,56 c44,0,75,-47,75,-227 c0,-182,-35,-228,-79,-228 Z M531,297 c41,0,77,20,98,48 l-15,20 c-18,-15,-32,-23,-54,-23 c-28,0,-41,22,-41,58 l0,299 l102,-2 l0,39 l-101,0 l4,87 l-47,0 l-30,-87 l-54,-5 l0,-32 l53,0 l0,-215 c0,-33,-1,-55,-1,-82 c0,-61,27,-105,86,-105 Z M750,294 c33,0,66,18,90,67 c7,-41,26,-65,64,-65 c35,0,54,18,69,52 l-16,14 c-11,-18,-18,-25,-28,-25 c-16,0,-23,19,-23,66 l0,189 l3,148 l-21,5 l-44,-57 c-23,49,-53,67,-86,67 c-68,0,-125,-61,-125,-231 c0,-172,50,-230,117,-230 Z M770,346 c-40,0,-67,37,-67,178 c0,143,32,179,72,179 c24,0,45,-14,64,-46 l0,-260 c-20,-38,-43,-51,-69,-51 Z M770,346" fill="rgb(0,0,0)" transform="matrix(0.936,0.0,0.0,-0.936,32.0,855.68)"/>
</svg>