<?xml version="1.0" encoding="UTF-8"?>
<svg width="1000" height="1000" viewBox="0 0 1000 1000" version="1.1" xmlns="http://www.w3.org/2000/svg" xmlns:xlink="http://www.w3.org/1999/xlink">
 <path d="M203,747 l-162,0 l0,-32 l47,-5 c2,-102,2,-206,2,-308 l0,-56 c0,-103,0,-207,-2,-308 l-47,-6 l0,-32 l161,0 c148,0,243,100,243,374 c0,285,-97,373,-242,373 Z M198,34 l-26,0 c-2,103,-2,208,-2,313 l0,55 c0,104,0,208,2,310 l27,0 c107,0,161,-73,161,-338 c0,-264,-60,-340,-162,-340 Z M871,749 c-44,0,-72,-28,-72,-75 c0,-43,23,-81,85,-109 c-13,-20,-33,-38,-59,-53 l11,-25 c71,35,115,97,115,175 c0,47,-22,87,-80,87 Z M490,207 c0,-159,73,-223,155,-223 c67,0,120,42,160,135 l-21,16 c-34,-64,-65,-96,-118,-96 c-49,0,-98,49,-98,186 l0,15 c185,50,241,132,241,207 c0,63,-46,98,-111,98 c-110,0,-208,-116,-208,-338 Z M569,275 c9,155,57,239,118,239 c32,0,53,-24,53,-70 c0,-62,-36,-117,-171,-169 Z M841,673 c0,27,11,40,31,40 c25,0,38,-19,38,-56 c0,-25,-4,-48,-13,-68 c-42,27,-56,53,-56,84 Z M841,673" fill="rgb(0,0,0)" transform="matrix(0.936,0.0,0.0,-0.936,32.0,855.68)"/>
</svg>