<?xml version="1.0" encoding="UTF-8"?>
<svg width="1000" height="1000" viewBox="0 0 1000 1000" version="1.1" xmlns="http://www.w3.org/2000/svg" xmlns:xlink="http://www.w3.org/1999/xlink">
 <path d="M193,747 l-142,0 l0,-32 l47,-5 c2,-102,2,-206,2,-308 l0,-56 c0,-103,0,-207,-2,-308 l-47,-6 l0,-32 l141,0 c68,0,119,30,152,102 l0,-100 l14,-9 l147,30 l0,27 l-89,5 l-1,119 l0,172 c21,-45,50,-62,80,-62 c72,0,130,62,130,231 c0,173,-51,230,-122,230 c-33,0,-65,-18,-88,-68 c0,39,9,77,29,116 l-15,16 c-53,-40,-76,-78,-83,-165 c-33,75,-85,103,-153,103 Z M188,34 l-6,0 c-2,103,-2,208,-2,313 l0,55 c0,104,0,208,2,310 l7,0 c97,0,145,-73,145,-338 c0,-264,-54,-340,-146,-340 Z M474,337 c-23,0,-42,15,-59,51 l0,248 c18,42,39,56,64,56 c41,0,71,-37,71,-177 c0,-142,-34,-178,-76,-178 Z M805,284 c89,0,143,82,143,232 c0,150,-58,229,-143,229 c-85,0,-143,-79,-143,-229 c0,-150,54,-232,143,-232 Z M805,317 c-45,0,-68,62,-68,198 c0,134,23,199,68,199 c45,0,68,-65,68,-199 c0,-136,-23,-198,-68,-198 Z M805,317" fill="rgb(0,0,0)" transform="matrix(0.936,0.0,0.0,-0.936,32.0,855.68)"/>
</svg>