<?xml version="1.0" encoding="UTF-8"?>
<svg width="1000" height="1000" viewBox="0 0 1000 1000" version="1.1" xmlns="http://www.w3.org/2000/svg" xmlns:xlink="http://www.w3.org/1999/xlink">
 <path d="M251,-16 c52,0,102,24,140,87 l2,-78 l142,7 l0,30 l-63,5 l0,578 c63,-13,129,-26,193,-35 l0,-50 l-88,-8 l0,-30 l88,0 l0,-256 c0,-66,-1,-132,-2,-198 l-83,-6 l0,-30 l267,0 l0,30 l-99,5 c-1,67,-2,133,-2,199 l0,337 l22,0 c113,0,168,41,200,105 l-22,8 c-31,-36,-76,-56,-162,-56 c-12,0,-25,0,-37,1 c6,123,40,165,90,165 c7,0,14,-1,21,-5 l18,-38 c11,-22,28,-32,49,-32 c18,0,33,9,37,24 c-20,52,-61,83,-124,83 c-90,0,-153,-58,-169,-189 c-65,10,-132,24,-197,36 l3,132 l-17,10 l-144,-25 l0,-27 l78,-5 l0,-71 c-35,5,-68,8,-99,8 c-117,0,-180,-49,-210,-126 l22,-7 c35,49,88,76,175,76 c34,0,72,-4,112,-11 l0,-165 c-35,60,-82,83,-133,83 c-96,0,-175,-75,-175,-281 c0,-209,70,-280,167,-280 Z M279,37 c-68,0,-112,47,-112,227 c0,182,50,228,116,228 c41,0,74,-19,108,-64 l0,-321 c-36,-52,-70,-70,-112,-70 Z M279,37" fill="rgb(0,0,0)" transform="matrix(0.936,0.0,0.0,-0.936,32.0,855.68)"/>
</svg>