<?xml version="1.0" encoding="UTF-8"?>
<svg width="1000" height="1000" viewBox="0 0 1000 1000" version="1.1" xmlns="http://www.w3.org/2000/svg" xmlns:xlink="http://www.w3.org/1999/xlink">
 <path d="M251,-16 c52,0,102,24,140,87 l2,-71 l353,0 l0,581 l12,0 c119,0,210,47,210,140 c0,67,-48,105,-120,105 c-98,0,-162,-57,-179,-186 c-64,8,-132,22,-197,34 l3,131 l-17,10 l-144,-25 l0,-27 l78,-5 l0,-71 c-35,5,-68,8,-99,8 c-117,0,-180,-49,-210,-126 l22,-7 c35,53,88,82,175,82 c34,0,72,-4,112,-11 l0,-171 c-35,60,-82,83,-133,83 c-96,0,-175,-75,-175,-281 c0,-209,70,-280,167,-280 Z M279,37 c-68,0,-112,47,-112,227 c0,182,50,228,116,228 c41,0,74,-19,108,-64 l0,-321 c-36,-52,-70,-70,-112,-70 Z M663,36 l-105,-6 l-86,5 l0,584 c63,-12,129,-25,193,-32 l0,-59 l-88,-8 l0,-30 l88,0 l0,-256 c0,-66,-1,-132,-2,-198 Z M747,633 c7,120,43,161,95,161 c47,0,76,-32,76,-74 c0,-50,-39,-88,-144,-88 c-9,0,-18,0,-27,1 Z M747,633" fill="rgb(0,0,0)" transform="matrix(0.936,0.0,0.0,-0.936,32.0,855.68)"/>
</svg>