<?xml version="1.0" encoding="UTF-8"?>
<svg width="1000" height="1000" viewBox="0 0 1000 1000" version="1.1" xmlns="http://www.w3.org/2000/svg" xmlns:xlink="http://www.w3.org/1999/xlink">
 <path d="M213,747 l-162,0 l0,-32 l47,-5 c2,-102,2,-206,2,-308 l0,-56 c0,-103,0,-207,-2,-308 l-47,-6 l0,-32 l161,0 c178,0,293,100,293,374 c0,285,-117,373,-292,373 Z M208,34 l-26,0 c-2,103,-2,208,-2,313 l0,55 c0,104,0,208,2,310 l27,0 c141,0,211,-73,211,-338 c0,-264,-79,-340,-212,-340 Z M617,749 c-32,0,-54,-22,-54,-52 c0,-22,9,-39,35,-56 l39,-26 c-15,-47,-48,-78,-102,-103 l11,-25 c83,35,135,97,135,175 c0,47,-18,87,-64,87 Z M784,-16 c104,0,160,55,160,149 c0,60,-22,104,-88,145 l-62,39 c-58,36,-77,64,-77,105 c0,54,32,92,88,92 c7,0,14,0,19,-2 c21,-40,41,-61,66,-61 c22,0,42,13,48,37 c-19,39,-71,57,-130,57 c-100,0,-152,-58,-152,-142 c0,-69,34,-116,87,-149 l56,-35 c66,-41,81,-67,81,-108 c0,-54,-30,-96,-94,-96 c-7,0,-13,0,-18,2 c-24,47,-47,71,-76,71 c-22,0,-42,-13,-48,-37 c10,-46,77,-67,140,-67 Z M784,-16" fill="rgb(0,0,0)" transform="matrix(0.936,0.0,0.0,-0.936,32.0,855.68)"/>
</svg>