<?xml version="1.0" encoding="UTF-8"?>
<svg width="1000" height="1000" viewBox="0 0 1000 1000" version="1.1" xmlns="http://www.w3.org/2000/svg" xmlns:xlink="http://www.w3.org/1999/xlink">
 <path d="M163,-67 c82,0,138,55,138,227 l1,350 l238,-2 c-39,-42,-62,-106,-62,-192 c0,-163,77,-252,202,-252 c125,0,202,88,202,252 c0,163,-82,249,-202,249 c-32,0,-61,-6,-86,-18 l-292,0 l0,32 c0,161,43,215,110,215 c11,0,21,-2,31,-6 l10,-66 c6,-38,20,-53,41,-53 c22,0,37,8,43,34 c-12,77,-56,123,-134,123 c-111,0,-183,-82,-183,-271 l0,-7 l-88,-8 l0,-30 l88,0 l0,-362 c0,-121,-2,-160,-25,-184 c-20,35,-37,48,-61,48 c-25,0,-43,-15,-47,-40 c7,-24,31,-39,76,-39 Z M680,98 c-78,0,-117,69,-117,217 c0,147,39,217,117,217 c78,0,117,-70,117,-217 c0,-148,-39,-217,-117,-217 Z M680,98" fill="rgb(0,0,0)" transform="matrix(0.936,0.0,0.0,-0.936,32.0,855.68)"/>
</svg>