<?xml version="1.0" encoding="UTF-8"?>
<svg width="1000" height="1000" viewBox="0 0 1000 1000" version="1.1" xmlns="http://www.w3.org/2000/svg" xmlns:xlink="http://www.w3.org/1999/xlink">
 <path d="M357,685 l22,-8 c10,44,25,68,49,68 c44,0,75,-73,132,-73 c43,0,72,44,80,112 l-21,7 c-9,-43,-25,-66,-50,-66 c-42,0,-76,73,-131,73 c-44,0,-71,-46,-81,-113 Z M455,55 c31,0,60,18,83,67 c7,-41,29,-65,70,-65 c34,0,52,18,67,52 l-16,14 c-10,-17,-17,-24,-26,-24 c-14,0,-20,19,-20,66 l0,288 l3,148 l-21,5 l-53,-57 c-22,49,-49,67,-79,67 c-71,0,-128,-75,-128,-281 c0,-210,50,-280,120,-280 Z M478,108 c-38,0,-65,47,-65,227 c0,182,32,228,70,228 c21,0,39,-13,54,-45 l0,-360 c-16,-37,-36,-50,-59,-50 Z M813,54 c94,0,152,99,152,282 c0,183,-62,279,-152,279 c-90,0,-152,-97,-152,-279 c0,-182,58,-282,152,-282 Z M813,88 c-50,0,-74,78,-74,247 c0,167,24,247,74,247 c50,0,74,-80,74,-247 c0,-169,-24,-247,-74,-247 Z M319,785 l0,32 c-160,-10,-260,-58,-260,-150 c0,-28,12,-50,30,-68 l20,16 c-7,11,-10,22,-10,34 c0,61,81,111,159,127 c-35,-37,-45,-83,-45,-202 l0,-507 c0,-77,-27,-101,-61,-101 c-50,0,-71,55,-71,139 c0,103,31,192,101,273 l-14,21 c-99,-84,-149,-173,-149,-292 c0,-119,50,-173,128,-173 c105,0,142,80,142,178 l0,511 c0,85,9,134,30,162 Z M319,785" fill="rgb(0,0,0)" transform="matrix(0.936,0.0,0.0,-0.936,32.0,855.68)"/>
</svg>