<?xml version="1.0" encoding="UTF-8"?>
<svg width="1000" height="1000" viewBox="0 0 1000 1000" version="1.1" xmlns="http://www.w3.org/2000/svg" xmlns:xlink="http://www.w3.org/1999/xlink">
 <path d="M537,705 l22,-8 c14,50,35,78,69,78 c31,0,50,-21,72,-44 c20,-21,43,-39,80,-39 c54,0,90,48,100,122 l-21,7 c-13,-49,-35,-76,-70,-76 c-29,0,-48,18,-71,42 c-20,22,-45,41,-80,41 c-55,0,-89,-50,-101,-123 Z M434,785 l0,32 c-191,-10,-310,-58,-310,-150 c0,-28,12,-50,30,-68 l20,16 c-7,11,-10,22,-10,34 c0,62,107,113,209,128 c-39,-37,-50,-83,-50,-203 l0,-417 c0,-145,-46,-191,-106,-191 c-71,0,-101,55,-101,139 c0,103,43,192,141,273 l-14,21 c-133,-84,-189,-173,-189,-292 c0,-116,65,-173,158,-173 c141,0,192,112,192,248 l0,441 c0,85,9,134,30,162 Z M700,54 c125,0,202,99,202,282 c0,183,-82,279,-202,279 c-120,0,-202,-97,-202,-279 c0,-182,77,-282,202,-282 Z M700,88 c-78,0,-117,78,-117,247 c0,167,39,247,117,247 c78,0,117,-80,117,-247 c0,-169,-39,-247,-117,-247 Z M700,88" fill="rgb(0,0,0)" transform="matrix(0.936,0.0,0.0,-0.936,32.0,855.68)"/>
</svg>