<?xml version="1.0" encoding="UTF-8"?>
<svg width="1000" height="1000" viewBox="0 0 1000 1000" version="1.1" xmlns="http://www.w3.org/2000/svg" xmlns:xlink="http://www.w3.org/1999/xlink">
 <path d="M238,-66 c141,0,192,112,192,248 l0,237 c57,32,110,58,161,79 c-7,-16,-11,-34,-11,-54 c0,-72,43,-113,110,-145 l56,-27 c77,-37,96,-60,96,-103 c0,-49,-40,-84,-117,-84 c-7,0,-13,0,-18,2 c-27,47,-53,71,-86,71 c-24,0,-46,-13,-52,-37 c11,-46,86,-67,156,-67 c123,0,185,56,185,137 c0,65,-32,106,-115,145 l-59,28 c-66,31,-91,58,-91,103 c0,45,36,77,103,77 c7,0,14,0,19,-2 c24,-40,47,-61,76,-61 c24,0,46,13,52,37 c-21,39,-78,57,-144,57 c-50,0,-90,-11,-118,-29 c-68,-26,-135,-55,-203,-89 l0,139 c99,12,203,21,298,39 c117,22,176,71,210,151 l-18,8 c-33,-49,-77,-77,-176,-96 c-97,-19,-208,-28,-313,-41 c2,64,11,104,29,128 l0,32 c-191,-9,-310,-50,-310,-130 c0,-20,9,-35,24,-48 l20,16 c-3,5,-4,9,-4,14 c0,53,108,97,210,109 c-31,-29,-44,-62,-49,-131 c-37,-6,-72,-12,-106,-19 c-105,-22,-161,-65,-161,-151 c0,-44,15,-78,37,-99 l17,16 c-12,17,-19,39,-19,62 c0,56,26,90,113,110 c36,8,76,15,117,20 l0,-173 c-26,-15,-53,-31,-80,-48 c-129,-81,-189,-161,-189,-268 c0,-108,68,-163,158,-163 Z M142,95 c0,91,49,172,151,240 c19,12,38,24,56,36 l0,-214 c0,-145,-50,-191,-116,-191 c-64,0,-91,51,-91,129 Z M142,95" fill="rgb(0,0,0)" transform="matrix(0.936,0.0,0.0,-0.936,32.0,855.68)"/>
</svg>