<?xml version="1.0" encoding="UTF-8"?>
<svg width="1000" height="1000" viewBox="0 0 1000 1000" version="1.1" xmlns="http://www.w3.org/2000/svg" xmlns:xlink="http://www.w3.org/1999/xlink">
 <path d="M197,-66 c123,0,167,96,167,213 l0,289 c63,31,102,38,121,38 c56,0,108,-94,164,-192 c-46,-88,-89,-165,-144,-165 c-27,0,-44,22,-44,64 c0,16,2,31,7,45 l-20,9 c-24,-27,-36,-55,-36,-91 c0,-47,24,-81,74,-81 c77,0,133,88,184,182 c55,-94,114,-182,185,-182 c50,0,85,45,93,126 l-20,9 c-10,-46,-25,-65,-52,-65 c-57,0,-109,95,-165,191 c42,80,83,147,134,147 c27,0,44,-23,44,-64 c0,-17,-2,-32,-7,-46 l20,-9 c24,27,36,55,36,92 c0,46,-24,80,-74,80 c-73,0,-126,-77,-174,-164 c-52,86,-108,164,-174,164 c-21,0,-55,-7,-152,-53 l0,152 c0,85,9,134,30,162 l0,32 c-175,-10,-285,-58,-285,-150 c0,-28,12,-50,30,-68 l20,16 c-7,11,-10,22,-10,34 c0,62,94,112,184,128 c-39,-37,-50,-83,-50,-203 l0,-145 c-141,-83,-229,-195,-229,-332 c0,-110,58,-163,143,-163 Z M684,514 c90,0,146,54,146,151 c0,98,-60,150,-146,150 c-86,0,-146,-51,-146,-150 c0,-98,56,-151,146,-151 Z M684,544 c-49,0,-74,38,-74,121 c0,81,25,121,74,121 c49,0,74,-40,74,-121 c0,-83,-25,-121,-74,-121 Z M116,95 c0,112,54,212,167,292 l0,-275 c0,-111,-35,-146,-81,-146 c-60,0,-86,51,-86,129 Z M116,95" fill="rgb(0,0,0)" transform="matrix(0.936,0.0,0.0,-0.936,32.0,855.68)"/>
</svg>