<?xml version="1.0" encoding="UTF-8"?>
<svg width="1000" height="1000" viewBox="0 0 1000 1000" version="1.1" xmlns="http://www.w3.org/2000/svg" xmlns:xlink="http://www.w3.org/1999/xlink">
 <path d="M89,297 l0,-63 l-1,-234 l81,0 l-1,234 l0,196 c28,46,57,60,81,60 c27,0,46,-21,46,-81 l0,-175 l-2,-234 l81,0 l-1,234 l0,181 c0,8,0,15,-1,22 c26,38,56,53,82,53 c28,0,46,-21,46,-83 l0,-338 c0,-47,25,-76,73,-76 c40,0,60,18,78,52 l-16,14 c-12,-17,-20,-24,-30,-24 c-17,0,-26,13,-26,47 l0,331 c0,94,-34,132,-93,132 c-42,0,-79,-20,-118,-75 c-13,56,-47,75,-85,75 c-40,0,-81,-24,-117,-82 l-5,68 l-12,8 l-121,-33 l0,-26 l59,-3 c1,-51,2,-110,2,-180 Z M741,293 c35,0,69,19,95,69 c6,-42,27,-67,65,-67 c35,0,54,18,70,52 l-16,14 c-11,-18,-19,-25,-29,-25 c-17,0,-24,19,-24,66 l0,189 l3,148 l-21,5 l-44,-59 c-24,51,-56,69,-91,69 c-69,0,-128,-61,-128,-231 c0,-172,51,-230,120,-230 Z M762,345 c-42,0,-71,37,-71,178 c0,143,34,179,75,179 c26,0,48,-14,69,-48 l0,-256 c-22,-39,-46,-53,-73,-53 Z M762,345" fill="rgb(0,0,0)" transform="matrix(0.936,0.0,0.0,-0.936,32.0,855.68)"/>
</svg>