<?xml version="1.0" encoding="UTF-8"?>
<svg width="1000" height="1000" viewBox="0 0 1000 1000" version="1.1" xmlns="http://www.w3.org/2000/svg" xmlns:xlink="http://www.w3.org/1999/xlink">
 <path d="M102,528 l0,-586 l14,-9 l154,30 l0,27 l-89,5 l-1,159 l0,88 c29,-56,69,-78,110,-78 c89,0,161,75,161,281 c0,210,-63,280,-153,280 c-43,0,-87,-23,-118,-83 c2,54,7,108,17,162 l-12,15 c-52,-41,-98,-82,-137,-122 l16,-21 c17,17,34,33,50,47 c-11,-58,-12,-119,-12,-195 Z M267,217 c-34,0,-60,17,-87,58 l0,333 c28,48,57,64,91,64 c58,0,99,-47,99,-227 c0,-182,-45,-228,-103,-228 Z M677,165 c44,0,88,23,121,82 c8,-50,32,-80,79,-80 c38,0,58,18,75,52 l-16,14 c-13,-17,-21,-24,-33,-24 c-20,0,-28,19,-28,66 l0,288 l3,148 l-21,5 l-55,-72 c-31,60,-73,82,-117,82 c-89,0,-163,-75,-163,-281 c0,-210,65,-280,155,-280 Z M704,218 c-60,0,-100,47,-100,227 c0,182,45,228,104,228 c33,0,61,-17,89,-60 l0,-330 c-29,-48,-59,-65,-93,-65 Z M704,218" fill="rgb(0,0,0)" transform="matrix(0.936,0.0,0.0,-0.936,32.0,855.68)"/>
</svg>