<?xml version="1.0" encoding="UTF-8"?>
<svg width="1000" height="1000" viewBox="0 0 1000 1000" version="1.1" xmlns="http://www.w3.org/2000/svg" xmlns:xlink="http://www.w3.org/1999/xlink">
 <path d="M121,528 l0,-586 l14,-9 l155,30 l0,27 l-89,5 l-1,159 l0,92 c32,-59,78,-82,124,-82 c96,0,175,75,175,281 c0,210,-69,280,-167,280 c-48,0,-97,-24,-132,-86 c2,55,6,110,16,166 l-13,14 c-52,-41,-98,-82,-137,-122 l16,-21 c17,17,34,33,51,48 c-11,-59,-12,-119,-12,-196 Z M301,217 c-39,0,-69,19,-101,64 l0,321 c33,52,66,70,105,70 c66,0,111,-47,111,-227 c0,-182,-50,-228,-115,-228 Z M574,407 c0,-173,85,-243,180,-243 c74,0,132,42,175,135 l-21,16 c-38,-64,-73,-96,-133,-96 c-58,0,-116,50,-120,191 c219,49,278,129,278,206 c0,69,-54,109,-131,109 c-120,0,-228,-109,-228,-318 Z M655,443 c4,163,62,251,136,251 c43,0,71,-30,71,-81 c0,-64,-38,-118,-207,-170 Z M655,443" fill="rgb(0,0,0)" transform="matrix(0.936,0.0,0.0,-0.936,32.0,855.68)"/>
</svg>