<?xml version="1.0" encoding="UTF-8"?>
<svg width="1000" height="1000" viewBox="0 0 1000 1000" version="1.1" xmlns="http://www.w3.org/2000/svg" xmlns:xlink="http://www.w3.org/1999/xlink">
 <path d="M766,168 c58,0,108,24,138,58 l-15,20 c-31,-22,-55,-33,-94,-33 c-48,0,-71,33,-71,88 l0,369 l142,-2 l0,39 l-141,0 l4,107 l-54,0 l-30,-107 l-74,-5 l0,-32 l73,0 l0,-285 c0,-33,-1,-55,-1,-82 c0,-79,39,-135,123,-135 Z M151,528 l0,-586 l14,-9 l155,30 l0,27 l-89,5 l-1,159 l0,92 c32,-59,78,-82,124,-82 c96,0,175,75,175,281 c0,210,-69,280,-167,280 c-48,0,-97,-24,-132,-86 c2,55,6,110,16,166 l-13,14 c-52,-41,-98,-82,-137,-122 l16,-21 c17,17,34,33,51,48 c-11,-59,-12,-119,-12,-196 Z M331,217 c-39,0,-69,19,-101,64 l0,321 c33,52,66,70,105,70 c66,0,111,-47,111,-227 c0,-182,-50,-228,-115,-228 Z M331,217" fill="rgb(0,0,0)" transform="matrix(0.936,0.0,0.0,-0.936,32.0,855.68)"/>
</svg>