<?xml version="1.0" encoding="UTF-8"?>
<svg width="1000" height="1000" viewBox="0 0 1000 1000" version="1.1" xmlns="http://www.w3.org/2000/svg" xmlns:xlink="http://www.w3.org/1999/xlink">
 <path d="M530,168 c41,0,77,20,98,48 l-15,20 c-18,-15,-32,-23,-54,-23 c-28,0,-41,22,-41,58 l0,399 l102,-2 l0,39 l-101,0 l4,107 l-50,0 l-30,-107 l-54,-5 l0,-32 l53,0 l0,-315 c0,-33,-1,-55,-1,-82 c0,-61,28,-105,89,-105 Z M100,528 l0,-586 l14,-9 l152,30 l0,27 l-89,5 l-1,159 l0,77 c22,-49,49,-67,79,-67 c71,0,128,75,128,281 c0,210,-50,280,-120,280 c-33,0,-63,-20,-87,-75 c4,51,9,102,21,153 l-10,16 c-52,-41,-98,-82,-137,-122 l16,-21 c15,15,30,29,45,43 c-10,-57,-11,-116,-11,-191 Z M232,217 c-23,0,-41,13,-56,45 l0,360 c16,37,37,50,61,50 c39,0,68,-47,68,-227 c0,-182,-33,-228,-73,-228 Z M731,165 c31,0,60,18,83,67 c7,-41,29,-65,70,-65 c34,0,52,18,67,52 l-16,14 c-10,-17,-17,-24,-26,-24 c-14,0,-20,19,-20,66 l0,288 l3,148 l-21,5 l-53,-57 c-22,49,-49,67,-79,67 c-71,0,-128,-75,-128,-281 c0,-210,50,-280,120,-280 Z M754,218 c-38,0,-65,47,-65,227 c0,182,32,228,70,228 c21,0,39,-13,54,-45 l0,-360 c-16,-37,-36,-50,-59,-50 Z M754,218" fill="rgb(0,0,0)" transform="matrix(0.936,0.0,0.0,-0.936,32.0,855.68)"/>
</svg>