<?xml version="1.0" encoding="UTF-8"?>
<svg width="1000" height="1000" viewBox="0 0 1000 1000" version="1.1" xmlns="http://www.w3.org/2000/svg" xmlns:xlink="http://www.w3.org/1999/xlink">
 <path d="M104,528 l0,-586 l14,-9 l154,30 l0,27 l-89,5 l-1,159 l0,89 c30,-57,73,-79,115,-79 c91,0,166,75,166,281 c0,210,-65,280,-158,280 c-45,0,-90,-23,-123,-84 c3,54,7,109,17,164 l-12,14 c-52,-41,-98,-82,-137,-122 l16,-21 c17,17,34,33,50,47 c-11,-58,-12,-119,-12,-195 Z M274,217 c-35,0,-63,18,-92,60 l0,329 c30,49,61,66,97,66 c60,0,102,-47,102,-227 c0,-182,-47,-228,-107,-228 Z M655,164 c60,0,97,34,129,77 c9,-50,35,-74,85,-74 c40,0,61,18,79,52 l-16,14 c-14,-17,-23,-24,-36,-24 c-21,0,-30,19,-30,66 l0,270 l2,157 l-12,12 l-140,-15 l0,-27 l69,-6 l-1,-392 c-30,-34,-57,-53,-94,-53 c-33,0,-51,22,-51,100 l0,224 l3,157 l-14,12 l-143,-13 l0,-28 l73,-7 l0,-354 c0,-110,35,-148,97,-148 Z M655,164" fill="rgb(0,0,0)" transform="matrix(0.936,0.0,0.0,-0.936,32.0,855.68)"/>
</svg>