<?xml version="1.0" encoding="UTF-8"?>
<svg width="1000" height="1000" viewBox="0 0 1000 1000" version="1.1" xmlns="http://www.w3.org/2000/svg" xmlns:xlink="http://www.w3.org/1999/xlink">
 <path d="M131,-67 c82,0,138,55,138,227 l0,371 c0,167,4,229,57,264 c30,-38,44,-48,69,-48 c26,0,43,15,47,40 c-7,24,-31,39,-76,39 c-103,0,-178,-85,-178,-247 l0,-31 l-88,-8 l0,-30 l88,0 l0,-362 c0,-121,-2,-160,-25,-184 c-20,35,-37,48,-61,48 c-25,0,-43,-15,-47,-40 c7,-24,31,-39,76,-39 Z M397,387 l0,-53 l-1,-184 l80,0 l-1,184 l0,147 c27,45,54,59,76,59 c26,0,44,-20,44,-78 l0,-128 l-2,-184 l80,0 l-1,184 l0,134 c0,7,0,14,-1,21 c24,37,53,51,78,51 c26,0,43,-20,43,-80 l0,-241 c0,-47,24,-76,72,-76 c39,0,59,18,77,52 l-16,14 c-12,-17,-19,-24,-30,-24 c-16,0,-25,14,-25,48 l0,233 c0,92,-32,129,-89,129 c-41,0,-77,-19,-114,-73 c-13,55,-45,73,-82,73 c-38,0,-78,-23,-112,-81 l-5,67 l-12,8 l-118,-33 l0,-26 l57,-3 c1,-39,2,-85,2,-140 Z M397,387" fill="rgb(0,0,0)" transform="matrix(0.936,0.0,0.0,-0.936,32.0,855.68)"/>
</svg>