<?xml version="1.0" encoding="UTF-8"?>
<svg width="1000" height="1000" viewBox="0 0 1000 1000" version="1.1" xmlns="http://www.w3.org/2000/svg" xmlns:xlink="http://www.w3.org/1999/xlink">
 <path d="M122,-67 c81,0,135,55,135,227 l0,371 c0,167,4,229,57,264 c30,-38,44,-48,69,-48 c26,0,43,15,47,40 c-6,24,-29,39,-71,39 c-101,0,-175,-85,-175,-247 l0,-31 l-88,-8 l0,-30 l88,0 l0,-362 c0,-121,-2,-160,-25,-184 c-20,35,-37,48,-61,48 c-25,0,-43,-15,-47,-40 c6,-24,29,-39,71,-39 Z M341,307 l0,-53 l-1,-184 l75,0 l-1,184 l0,152 c19,41,38,54,54,54 c18,0,31,-16,31,-63 l0,-143 l-2,-184 l75,0 l-1,184 l0,163 c16,31,36,43,54,43 c18,0,31,-16,31,-65 l0,-256 c0,-47,23,-76,67,-76 c37,0,55,18,72,52 l-16,14 c-11,-17,-18,-24,-27,-24 c-15,0,-23,15,-23,53 l0,243 c0,81,-26,114,-72,114 c-33,0,-61,-17,-90,-65 c-10,49,-36,65,-65,65 c-31,0,-63,-22,-90,-76 l-5,62 l-12,8 l-103,-33 l0,-26 l47,-3 c1,-39,2,-85,2,-140 Z M775,485 c23,0,46,14,63,53 c5,-33,20,-51,47,-51 c32,0,50,18,64,52 l-16,14 c-9,-16,-16,-23,-24,-23 c-13,0,-19,19,-19,66 l0,67 l3,148 l-21,5 l-30,-43 c-17,39,-37,53,-59,53 c-50,0,-88,-45,-88,-171 c0,-127,31,-170,80,-170 Z M789,539 c-24,0,-39,23,-39,116 c0,93,17,117,43,117 c16,0,32,-8,44,-30 l0,-168 c-14,-27,-32,-35,-48,-35 Z M789,539" fill="rgb(0,0,0)" transform="matrix(0.936,0.0,0.0,-0.936,32.0,855.68)"/>
</svg>