<?xml version="1.0" encoding="UTF-8"?>
<svg width="1000" height="1000" viewBox="0 0 1000 1000" version="1.1" xmlns="http://www.w3.org/2000/svg" xmlns:xlink="http://www.w3.org/1999/xlink">
 <path d="M300,-6 l0,-34 c133,10,267,10,400,0 l0,34 c-110,29,-145,66,-165,278 c58,-22,99,-52,133,-92 l32,32 c-40,34,-70,75,-92,133 c212,-20,249,-55,278,-165 l34,0 c-10,133,-10,267,0,400 l-34,0 c-29,-110,-66,-145,-278,-165 c22,58,52,99,92,133 l-32,32 c-34,-40,-75,-70,-133,-92 c20,212,55,249,165,278 l0,34 c-133,-10,-267,-10,-400,0 l0,-34 c110,-29,145,-66,165,-278 c-58,22,-99,52,-133,92 l-32,-32 c40,-34,70,-75,92,-133 c-212,20,-249,55,-278,165 l-34,0 c10,-133,10,-267,0,-400 l34,0 c29,110,66,145,278,165 c-22,-58,-52,-99,-92,-133 l32,-32 c34,40,75,70,133,92 c-20,-212,-55,-249,-165,-278 Z M500,340 c-25,0,-40,15,-40,40 c0,25,15,40,40,40 c25,0,40,-15,40,-40 c0,-25,-15,-40,-40,-40 Z M500,340" fill="rgb(0,0,0)" transform="matrix(0.936,0.0,0.0,-0.936,32.0,855.68)"/>
</svg>