<?xml version="1.0" encoding="UTF-8"?>
<svg width="1000" height="1000" viewBox="0 0 1000 1000" version="1.1" xmlns="http://www.w3.org/2000/svg" xmlns:xlink="http://www.w3.org/1999/xlink">
 <path d="M482,423 l42,14 l11,-22 l8,-17 l6,-18 l-6,-18 l-8,-17 l-17,-8 l-18,-6 l-18,6 l-17,8 l-8,17 l-6,18 l6,18 l8,17 Z M476,437 l42,-14 l17,-8 l22,-11 l-8,-24 l8,-24 l-22,-11 l-11,-22 l-24,8 l-24,-8 l-11,22 l-22,11 l8,24 l-8,24 l22,11 Z M91,192 l-13,31 l365,181 l-17,50 l50,-17 l24,48 l24,-48 l50,17 l-17,-50 l48,-24 l-48,-24 l17,-50 l-50,17 l-24,-48 l-24,48 l-50,-17 l17,50 l-365,181 l13,31 l335,-114 l-114,335 l31,13 l157,-317 l157,317 l31,-13 l-114,-335 l335,114 l13,-31 l-317,-157 l317,-157 l-13,-31 l-335,114 l114,-335 l-31,-13 l-157,317 l-157,-317 l-31,13 l114,335 Z M91,192" fill="rgb(0,0,0)" transform="matrix(0.936,0.0,0.0,-0.936,32.0,855.68)"/>
</svg>