<?xml version="1.0" encoding="UTF-8"?>
<svg width="1000" height="1000" viewBox="0 0 1000 1000" version="1.1" xmlns="http://www.w3.org/2000/svg" xmlns:xlink="http://www.w3.org/1999/xlink">
 <path d="M72,545 l20,-17 c86,127,217,240,408,240 c191,0,322,-113,408,-240 l20,17 c-79,135,-208,269,-428,269 c-220,0,-349,-134,-428,-269 Z M293,382 c33,0,65,17,89,63 c5,-39,22,-61,54,-61 c39,0,60,18,78,52 l-16,13 c-12,-19,-20,-26,-31,-26 c-17,0,-25,19,-25,66 l0,91 l3,68 l-21,5 l-38,-53 c-23,46,-52,63,-85,63 c-52,0,-103,-37,-103,-141 c0,-105,44,-140,95,-140 Z M314,432 c-27,0,-50,19,-50,90 c0,73,26,92,53,92 c22,0,42,-14,61,-45 l0,-88 c-21,-37,-41,-49,-64,-49 Z M178,-57 c108,0,209,84,306,171 c111,-86,225,-171,327,-171 c63,0,106,45,117,126 l-20,9 c-15,-46,-33,-65,-76,-65 c-83,0,-183,76,-287,155 c84,76,166,141,248,141 c47,0,76,-29,76,-80 c0,-14,-2,-27,-7,-38 l20,-9 c24,24,36,50,36,84 c0,51,-34,88,-106,88 c-105,0,-203,-78,-297,-162 c-108,82,-217,162,-315,162 c-64,0,-107,-45,-118,-126 l20,-9 c15,46,34,65,77,65 c80,0,175,-70,275,-147 c-87,-78,-172,-148,-257,-148 c-47,0,-76,28,-76,80 c0,13,2,26,7,37 l-20,9 c-24,-24,-36,-50,-36,-83 c0,-52,34,-89,106,-89 Z M665,384 c85,0,137,50,137,141 c0,92,-56,140,-137,140 c-81,0,-137,-48,-137,-140 c0,-91,52,-141,137,-141 Z M665,414 c-46,0,-69,34,-69,111 c0,75,23,111,69,111 c45,0,69,-36,69,-111 c0,-77,-24,-111,-69,-111 Z M665,414" fill="rgb(0,0,0)" transform="matrix(0.936,0.0,0.0,-0.936,32.0,855.68)"/>
</svg>