<?xml version="1.0" encoding="UTF-8"?>
<svg width="1000" height="1000" viewBox="0 0 1000 1000" version="1.1" xmlns="http://www.w3.org/2000/svg" xmlns:xlink="http://www.w3.org/1999/xlink">
 <path d="M162,-57 c113,0,220,113,323,230 c117,-115,238,-230,343,-230 c65,0,109,45,120,126 l-20,9 c-16,-46,-34,-65,-79,-65 c-88,0,-198,108,-312,219 c93,105,183,198,272,198 c50,0,80,-30,80,-82 c0,-14,-2,-26,-7,-37 l20,-9 c24,24,36,49,36,83 c0,51,-35,89,-110,89 c-109,0,-213,-106,-314,-219 c-114,111,-230,219,-331,219 c-66,0,-110,-45,-121,-126 l20,-9 c16,46,35,65,80,65 c85,0,190,-101,300,-208 c-96,-109,-189,-208,-281,-208 c-50,0,-80,29,-80,82 c0,13,2,25,7,36 l-20,9 c-24,-24,-36,-49,-36,-82 c0,-52,35,-90,110,-90 Z M506,444 c104,0,168,64,168,181 c0,118,-68,180,-168,180 c-100,0,-168,-62,-168,-180 c0,-117,64,-181,168,-181 Z M506,475 c-63,0,-95,47,-95,150 c0,101,32,150,95,150 c63,0,95,-49,95,-150 c0,-103,-32,-150,-95,-150 Z M506,475" fill="rgb(0,0,0)" transform="matrix(0.936,0.0,0.0,-0.936,32.0,855.68)"/>
</svg>